<svg width="50" height="50" viewBox="0 0 50 50" fill="none" xmlns="http://www.w3.org/2000/svg">
<rect x="1" y="1" width="48" height="48" rx="24" fill="white" stroke="#E5E4E1" stroke-width="2"/>
<path d="M25 15C22.38 15 20.25 17.13 20.25 19.75C20.25 22.32 22.26 24.4 24.88 24.49C24.96 24.48 25.04 24.48 25.1 24.49C25.12 24.49 25.13 24.49 25.15 24.49C25.16 24.49 25.16 24.49 25.17 24.49C27.73 24.4 29.74 22.32 29.75 19.75C29.75 17.13 27.62 15 25 15Z" fill="#B3B4BA"/>
<path d="M30.08 27.15C27.29 25.29 22.74 25.29 19.93 27.15C18.66 28 17.96 29.15 17.96 30.38C17.96 31.61 18.66 32.75 19.92 33.59C21.32 34.53 23.16 35 25 35C26.84 35 28.68 34.53 30.08 33.59C31.34 32.74 32.04 31.6 32.04 30.36C32.03 29.13 31.34 27.99 30.08 27.15Z" fill="#B3B4BA"/>
</svg>
