<svg width="50" height="50" viewBox="0 0 50 50" fill="none" xmlns="http://www.w3.org/2000/svg">
<rect x="1" y="1" width="48" height="48" rx="24" fill="white" stroke="#E5E4E1" stroke-width="2"/>
<path d="M29.44 16.1C27.63 16.1 26.01 16.98 25 18.33C23.99 16.98 22.37 16.1 20.56 16.1C17.49 16.1 15 18.6 15 21.69C15 22.88 15.19 23.98 15.52 25C17.1 30 21.97 32.99 24.38 33.81C24.72 33.93 25.28 33.93 25.62 33.81C28.03 32.99 32.9 30 34.48 25C34.81 23.98 35 22.88 35 21.69C35 18.6 32.51 16.1 29.44 16.1Z" fill="#B3B4BA"/>
</svg>
