<svg width="50" height="50" viewBox="0 0 50 50" fill="none" xmlns="http://www.w3.org/2000/svg">
<rect x="1" y="1" width="48" height="48" rx="24" fill="white" stroke="#E5E4E1" stroke-width="2"/>
<path d="M31 15H19C17.34 15 16 16.33 16 17.97V28.88C16 30.52 17.34 31.85 19 31.85H19.76C20.56 31.85 21.32 32.16 21.88 32.72L23.59 34.41C24.37 35.18 25.64 35.18 26.42 34.41L28.13 32.72C28.69 32.16 29.46 31.85 30.25 31.85H31C32.66 31.85 34 30.52 34 28.88V17.97C34 16.33 32.66 15 31 15ZM25 18.75C26.29 18.75 27.33 19.79 27.33 21.08C27.33 22.37 26.29 23.41 25 23.41C23.71 23.41 22.67 22.36 22.67 21.08C22.67 19.79 23.71 18.75 25 18.75ZM27.68 28.06H22.32C21.51 28.06 21.04 27.16 21.49 26.49C22.17 25.48 23.49 24.8 25 24.8C26.51 24.8 27.83 25.48 28.51 26.49C28.96 27.16 28.48 28.06 27.68 28.06Z" fill="#B3B4BA"/>
</svg>
